<?xml version="1.0" standalone="no"?>
<!DOCTYPE svg PUBLIC "-//W3C//DTD SVG 20010904//EN"
 "http://www.w3.org/TR/2001/REC-SVG-20010904/DTD/svg10.dtd">
<svg version="1.0" xmlns="http://www.w3.org/2000/svg"
 width="30px" class="text-yellow-300 top-1" height="30px" viewBox="0 0 1323.000000 1600.000000"
 preserveAspectRatio="xMidYMid meet">

<g transform="translate(0.000000,1600.000000) scale(0.100000,-0.100000)"
   
   fill="rgb(250 202 21)" class="text-yellow-300" stroke="none">
<path d="M6594 15973 c-8 -31 -55 -122 -84 -163 -11 -15 -20 -31 -20 -35 0 -3
-13 -25 -28 -48 -15 -23 -34 -55 -42 -72 -8 -16 -26 -48 -40 -70 -14 -22 -32
-53 -40 -70 -8 -16 -27 -49 -42 -72 -15 -23 -28 -44 -28 -48 0 -4 -13 -25 -28
-48 -15 -23 -34 -55 -42 -72 -8 -16 -26 -48 -40 -70 -14 -22 -32 -53 -40 -70
-8 -16 -26 -48 -40 -70 -14 -22 -32 -53 -40 -70 -8 -16 -27 -49 -42 -72 -15
-23 -28 -44 -28 -48 0 -4 -13 -25 -28 -48 -15 -23 -34 -55 -42 -72 -8 -16 -26
-48 -40 -70 -14 -22 -32 -53 -40 -70 -8 -16 -27 -49 -42 -72 -15 -23 -28 -44
-28 -48 0 -4 -13 -25 -28 -48 -15 -23 -34 -55 -42 -72 -8 -16 -26 -48 -40 -70
-14 -22 -32 -53 -40 -70 -8 -16 -26 -48 -40 -70 -14 -22 -32 -53 -40 -70 -8
-16 -27 -49 -42 -72 -15 -23 -28 -44 -28 -48 0 -4 -13 -25 -28 -48 -15 -23
-34 -55 -42 -72 -8 -16 -26 -48 -40 -70 -14 -22 -32 -53 -40 -70 -8 -16 -27
-49 -42 -72 -15 -23 -28 -44 -28 -48 0 -4 -13 -25 -28 -48 -15 -23 -34 -55
-42 -72 -8 -16 -26 -48 -40 -70 -14 -22 -32 -53 -40 -70 -8 -16 -26 -48 -40
-70 -14 -22 -32 -53 -40 -70 -8 -16 -26 -48 -40 -70 -14 -22 -32 -53 -40 -70
-8 -16 -27 -49 -42 -72 -15 -23 -28 -44 -28 -48 0 -4 -13 -25 -28 -48 -15 -23
-34 -55 -42 -72 -8 -16 -27 -49 -42 -72 -15 -23 -28 -44 -28 -48 0 -4 -13 -25
-28 -48 -15 -23 -34 -55 -42 -72 -8 -16 -26 -48 -40 -70 -14 -22 -32 -53 -40
-70 -8 -16 -26 -48 -40 -70 -14 -22 -32 -53 -40 -70 -8 -16 -27 -49 -42 -72
-15 -23 -28 -44 -28 -48 0 -4 -13 -25 -28 -48 -15 -23 -34 -55 -42 -72 -8 -16
-26 -48 -40 -70 -14 -22 -32 -53 -40 -70 -8 -16 -26 -48 -40 -70 -14 -22 -32
-53 -40 -70 -8 -16 -27 -49 -42 -72 -15 -23 -28 -44 -28 -48 0 -4 -13 -25 -28
-48 -15 -23 -34 -55 -42 -72 -8 -16 -26 -48 -40 -70 -14 -22 -32 -53 -40 -70
-8 -16 -27 -49 -42 -72 -15 -23 -28 -44 -28 -48 0 -4 -13 -25 -28 -48 -15 -23
-34 -55 -42 -72 -8 -16 -26 -48 -40 -70 -14 -22 -32 -53 -40 -70 -8 -16 -27
-49 -42 -72 -15 -23 -28 -44 -28 -48 0 -4 -13 -25 -28 -48 -15 -23 -34 -55
-42 -72 -8 -16 -26 -48 -40 -70 -14 -22 -32 -53 -40 -70 -8 -16 -26 -48 -40
-70 -14 -22 -32 -53 -40 -70 -8 -16 -26 -48 -39 -70 -14 -22 -38 -65 -54 -95
-16 -30 -35 -62 -43 -71 -8 -8 -14 -19 -14 -22 0 -4 -12 -26 -27 -50 -15 -23
-40 -67 -56 -97 -16 -30 -33 -61 -39 -67 -6 -7 -24 -39 -40 -70 -16 -32 -36
-65 -44 -74 -8 -8 -14 -19 -14 -22 0 -4 -12 -26 -27 -50 -15 -23 -40 -67 -56
-97 -16 -30 -34 -62 -41 -70 -6 -8 -18 -28 -26 -45 -8 -16 -26 -48 -39 -70
-14 -22 -38 -65 -54 -95 -16 -30 -35 -62 -43 -71 -8 -8 -14 -19 -14 -22 0 -4
-12 -26 -27 -50 -15 -23 -40 -67 -56 -97 -16 -30 -33 -61 -39 -67 -6 -7 -24
-39 -40 -70 -16 -32 -36 -65 -44 -74 -8 -8 -14 -19 -14 -22 0 -4 -12 -26 -27
-50 -15 -23 -40 -67 -56 -97 -16 -30 -33 -61 -39 -67 -6 -7 -24 -39 -40 -70
-16 -32 -36 -65 -44 -74 -8 -8 -14 -19 -14 -22 0 -4 -12 -26 -27 -50 -15 -23
-40 -67 -56 -97 -16 -30 -34 -62 -41 -70 -6 -8 -18 -28 -26 -45 -8 -16 -26
-48 -39 -70 -14 -22 -38 -65 -54 -95 -16 -30 -33 -61 -39 -67 -6 -7 -24 -39
-40 -70 -16 -32 -36 -65 -44 -74 -8 -8 -14 -19 -14 -22 0 -4 -12 -26 -27 -50
-15 -23 -40 -67 -56 -97 -16 -30 -33 -61 -39 -67 -6 -7 -24 -39 -40 -70 -16
-32 -36 -65 -44 -74 -8 -8 -14 -19 -14 -22 0 -4 -12 -26 -27 -50 -15 -23 -40
-67 -56 -97 -16 -30 -33 -61 -39 -67 -6 -7 -24 -39 -40 -70 -16 -32 -36 -65
-44 -74 -8 -8 -14 -19 -14 -22 0 -4 -12 -26 -27 -50 -15 -23 -40 -67 -56 -97
-16 -30 -34 -62 -41 -70 -6 -8 -18 -28 -26 -45 -8 -16 -26 -48 -39 -70 -14
-22 -38 -65 -54 -95 -16 -30 -35 -62 -43 -71 -8 -8 -14 -19 -14 -22 0 -4 -12
-26 -27 -50 -15 -23 -40 -67 -56 -97 -16 -30 -33 -61 -39 -67 -6 -7 -24 -39
-40 -70 -16 -32 -36 -65 -44 -74 -8 -8 -14 -19 -14 -22 0 -4 -12 -26 -27 -50
-15 -23 -40 -67 -56 -97 -16 -30 -34 -62 -41 -70 -6 -8 -18 -28 -26 -45 -8
-16 -26 -48 -39 -70 -14 -22 -38 -65 -54 -95 -16 -30 -33 -61 -39 -67 -6 -7
-24 -39 -40 -70 -16 -32 -36 -65 -44 -74 -8 -8 -14 -19 -14 -22 0 -4 -12 -26
-27 -50 -15 -23 -39 -65 -54 -92 -37 -71 -52 -98 -66 -115 -6 -8 -24 -40 -40
-70 -16 -30 -40 -73 -54 -95 -13 -22 -31 -53 -39 -70 -8 -16 -20 -37 -26 -45
-7 -8 -25 -40 -41 -70 -16 -30 -41 -74 -56 -97 -15 -24 -27 -46 -27 -50 0 -3
-6 -14 -14 -22 -8 -9 -27 -41 -43 -71 -48 -91 -84 -142 -104 -147 -14 -4 -19
-14 -19 -39 0 -19 3 -34 8 -35 4 -1 21 -2 37 -4 17 -1 51 -16 77 -34 25 -17
49 -31 54 -31 4 0 15 -6 23 -14 9 -8 42 -28 74 -44 31 -16 63 -34 70 -40 6 -6
37 -23 67 -39 30 -16 74 -41 97 -56 24 -15 46 -27 50 -27 3 0 14 -6 22 -14 9
-8 41 -27 71 -43 30 -16 74 -41 97 -56 24 -15 49 -27 57 -27 12 0 76 81 76 96
0 2 12 23 27 47 15 23 40 67 56 97 16 30 34 62 41 70 6 8 18 29 26 45 8 17 26
48 39 70 14 22 38 65 54 95 16 30 35 62 43 71 8 8 14 19 14 22 0 4 12 26 27
50 15 23 40 67 56 97 16 30 33 61 39 67 6 7 24 39 40 70 16 32 36 65 44 74 8
8 14 19 14 22 0 4 12 26 27 50 15 23 40 67 56 97 16 30 33 61 39 67 6 7 24 39
40 70 16 32 35 65 42 73 6 8 18 29 26 45 8 17 26 48 39 70 14 22 38 65 54 95
16 30 35 62 43 71 8 8 14 19 14 22 0 4 12 26 27 50 15 23 40 67 56 97 16 30
35 62 43 71 8 8 14 19 14 22 0 4 12 26 27 50 15 23 40 67 56 97 16 30 34 62
41 70 6 8 18 29 26 45 8 17 26 48 39 70 14 22 38 65 54 95 16 30 35 62 43 71
8 8 14 19 14 22 0 4 12 26 27 50 15 23 40 67 56 97 16 30 34 62 41 70 6 8 18
29 26 45 8 17 26 48 39 70 14 22 38 65 54 95 16 30 35 62 43 71 8 8 14 19 14
22 0 4 12 26 27 50 15 23 40 67 56 97 16 30 33 61 39 67 6 7 24 39 40 70 16
32 36 65 44 74 8 8 14 19 14 22 0 4 12 26 27 50 15 23 40 67 56 97 16 30 34
62 41 70 6 8 18 29 26 45 8 17 26 48 39 70 14 22 38 65 54 95 16 30 35 62 43
71 8 8 14 19 14 22 0 4 12 26 27 50 15 23 40 67 56 97 16 30 33 61 39 67 6 7
24 39 40 70 16 32 36 65 44 74 8 8 14 19 14 22 0 4 12 26 27 50 15 23 40 67
56 97 16 30 33 61 39 67 6 7 24 39 40 70 16 32 36 65 44 74 8 8 14 19 14 22 0
4 12 26 27 50 15 23 40 67 56 97 16 30 34 62 41 70 6 8 18 29 26 45 8 17 26
48 39 70 14 22 38 65 54 95 16 30 35 62 43 71 8 8 14 19 14 22 0 4 12 26 27
50 15 23 40 67 56 97 16 30 33 61 39 67 6 7 24 39 40 70 16 32 35 65 42 73 7
8 25 41 40 72 15 32 32 60 37 63 5 4 18 26 29 50 11 24 24 46 30 50 5 3 23 35
40 70 17 35 35 67 40 70 5 3 23 35 40 70 17 35 35 67 40 70 5 3 23 35 40 70
17 35 35 67 40 70 6 4 19 26 30 50 11 24 24 46 30 50 5 3 23 35 40 70 17 35
35 67 40 70 5 3 23 35 40 70 17 35 35 67 40 70 6 4 19 26 30 50 11 24 24 46
30 50 5 3 23 35 40 70 17 35 35 67 40 70 5 3 23 35 40 70 17 35 35 67 40 70 5
3 23 35 40 70 17 35 35 67 40 70 6 4 19 26 30 50 11 24 24 46 30 50 5 3 23 35
40 70 17 35 35 67 40 70 5 3 23 35 40 70 17 35 35 67 40 70 6 4 19 26 30 50
11 24 24 46 30 50 5 3 23 35 40 70 17 35 35 67 40 70 5 3 23 35 40 70 17 35
35 67 40 70 5 3 23 35 40 70 17 35 35 67 40 70 6 4 19 26 30 50 11 24 24 46
30 50 5 3 23 35 40 70 17 35 35 67 40 70 5 3 23 35 40 70 17 35 35 67 40 70 5
3 23 35 40 70 17 35 35 67 40 70 6 4 19 26 30 50 11 24 24 46 30 50 5 3 23 35
40 70 17 35 35 67 39 70 5 3 26 39 46 80 21 41 41 75 46 75 5 0 9 9 9 20 0 11
5 20 10 20 6 0 10 6 10 13 0 7 9 23 20 35 11 12 20 28 20 37 0 8 5 15 10 15 6
0 10 9 10 20 0 11 5 20 10 20 6 0 10 6 10 13 0 7 9 23 20 35 11 12 20 28 20
37 0 8 5 15 10 15 6 0 10 7 10 16 0 8 14 35 30 59 17 24 30 46 30 50 0 4 13
25 28 48 15 23 34 56 42 72 8 17 26 48 40 70 14 22 32 54 40 70 8 17 26 48 40
70 14 22 32 54 40 70 8 17 26 48 40 70 14 22 32 54 40 70 8 17 27 49 42 72 15
23 28 45 28 50 1 21 40 56 65 58 22 1 34 -9 64 -55 20 -30 43 -68 51 -85 8
-16 27 -49 42 -72 15 -23 28 -44 28 -48 0 -4 13 -25 28 -48 15 -23 34 -55 42
-72 8 -16 26 -48 40 -70 14 -22 32 -53 40 -70 8 -16 26 -48 40 -70 14 -22 32
-53 40 -70 8 -16 22 -41 31 -55 30 -45 70 -115 76 -132 3 -10 9 -18 14 -18 5
0 9 -9 9 -20 0 -11 5 -20 10 -20 6 0 10 -7 10 -15 0 -9 9 -25 20 -37 11 -12
20 -28 20 -35 0 -7 5 -13 10 -13 6 0 10 -7 10 -15 0 -9 9 -25 20 -37 11 -12
20 -28 20 -35 0 -7 5 -13 10 -13 6 0 10 -9 10 -20 0 -11 5 -20 10 -20 6 0 10
-9 10 -20 0 -11 4 -20 9 -20 5 0 25 -34 46 -75 20 -41 41 -77 46 -80 4 -3 22
-35 39 -70 17 -35 35 -67 40 -70 5 -3 23 -35 40 -70 17 -35 35 -67 40 -70 6
-4 19 -26 30 -50 11 -24 24 -46 30 -50 5 -3 23 -35 40 -70 17 -35 35 -67 40
-70 5 -3 23 -35 40 -70 17 -35 35 -67 40 -70 6 -4 19 -26 30 -50 11 -24 24
-46 30 -50 5 -3 23 -35 40 -70 17 -35 35 -67 40 -70 5 -3 23 -35 40 -70 17
-35 35 -67 40 -70 6 -4 19 -26 30 -50 11 -24 24 -46 30 -50 5 -3 23 -35 40
-70 17 -35 35 -67 40 -70 5 -3 23 -35 40 -70 17 -35 35 -67 40 -70 5 -3 23
-35 40 -70 17 -35 35 -67 40 -70 6 -4 19 -26 30 -50 11 -24 24 -46 30 -50 5
-3 23 -35 40 -70 17 -35 35 -67 40 -70 5 -3 23 -35 40 -70 17 -35 35 -67 40
-70 6 -4 19 -26 30 -50 11 -24 24 -46 30 -50 5 -3 23 -35 40 -70 17 -35 35
-67 40 -70 5 -3 23 -35 40 -70 17 -35 35 -67 40 -70 5 -3 23 -35 40 -70 17
-35 35 -67 40 -70 5 -3 23 -35 40 -70 17 -35 35 -67 40 -70 6 -4 19 -26 30
-50 11 -24 24 -46 30 -50 5 -3 23 -35 40 -70 17 -35 35 -67 40 -70 5 -3 23
-35 40 -70 17 -35 35 -67 40 -70 5 -3 17 -23 26 -43 10 -20 23 -44 30 -52 7
-8 26 -41 42 -73 16 -31 34 -63 40 -70 6 -6 23 -37 39 -67 16 -30 41 -74 56
-97 15 -24 27 -46 27 -50 0 -3 6 -14 14 -22 8 -9 32 -50 53 -91 21 -41 51 -94
66 -117 15 -24 27 -46 27 -50 0 -3 6 -14 14 -22 8 -9 27 -41 43 -71 16 -30 41
-74 56 -97 15 -24 27 -46 27 -50 0 -3 6 -14 14 -22 8 -9 28 -42 44 -74 16 -31
34 -63 40 -70 6 -6 23 -37 39 -67 16 -30 41 -74 56 -97 15 -24 27 -46 27 -50
0 -3 6 -14 14 -22 8 -9 32 -50 53 -91 21 -41 51 -94 66 -117 15 -24 27 -46 27
-50 0 -3 6 -14 14 -22 8 -9 28 -42 44 -74 16 -31 34 -63 40 -70 6 -6 23 -37
39 -67 16 -30 41 -74 56 -97 15 -24 27 -46 27 -50 0 -3 6 -14 14 -22 8 -9 28
-42 44 -74 16 -31 34 -63 40 -70 6 -6 23 -37 39 -67 16 -30 41 -74 56 -97 15
-24 27 -46 27 -50 0 -3 6 -14 14 -22 8 -9 27 -41 43 -71 16 -30 40 -73 54 -95
13 -22 31 -53 39 -70 8 -16 20 -37 26 -45 7 -8 25 -40 41 -70 16 -30 41 -74
56 -97 15 -24 27 -46 27 -50 0 -3 6 -14 14 -22 8 -9 27 -41 43 -71 16 -30 40
-73 54 -95 13 -22 31 -53 39 -70 8 -16 20 -37 26 -45 7 -8 25 -40 41 -70 16
-30 41 -74 56 -97 15 -24 27 -46 27 -50 0 -3 6 -14 14 -22 8 -9 28 -42 44 -74
16 -31 34 -63 40 -70 6 -6 23 -37 39 -67 16 -30 41 -74 56 -97 15 -24 27 -46
27 -50 0 -3 6 -14 14 -22 8 -9 27 -41 43 -71 16 -30 40 -73 54 -95 13 -22 31
-53 39 -70 8 -16 20 -37 26 -45 7 -8 25 -40 41 -70 16 -30 41 -74 56 -97 15
-24 27 -46 27 -50 0 -3 6 -14 14 -22 8 -9 27 -41 43 -71 16 -30 40 -73 54 -95
13 -22 31 -53 39 -70 8 -16 20 -37 26 -45 7 -8 25 -40 41 -70 16 -30 41 -74
56 -97 15 -24 27 -46 27 -50 0 -3 6 -14 14 -22 8 -9 28 -42 44 -74 16 -31 34
-63 40 -70 6 -6 23 -37 39 -67 16 -30 41 -74 56 -97 15 -24 27 -46 27 -50 0
-3 6 -14 14 -22 8 -9 27 -41 43 -71 16 -30 40 -73 54 -95 13 -22 31 -53 39
-70 8 -16 26 -46 39 -65 12 -19 27 -45 32 -58 17 -44 41 -41 134 17 22 14 65
38 95 54 30 16 62 34 70 41 8 6 29 18 45 26 17 8 48 26 70 39 22 14 65 38 95
54 30 16 62 34 70 41 8 6 29 18 45 26 17 8 48 26 70 39 22 14 58 35 80 47 48
26 55 55 26 95 -12 15 -21 31 -21 34 0 3 -12 24 -27 48 -15 23 -40 67 -56 97
-16 30 -34 62 -41 70 -6 8 -18 29 -26 45 -8 17 -26 48 -39 70 -14 22 -38 65
-54 95 -16 30 -35 62 -43 71 -8 8 -14 19 -14 22 0 4 -12 26 -27 50 -15 23 -40
67 -56 97 -16 30 -35 62 -42 70 -7 8 -16 26 -20 38 -4 13 -20 43 -36 67 -16
24 -29 46 -29 51 0 4 -6 15 -14 23 -8 9 -28 42 -44 74 -16 31 -34 63 -40 70
-6 6 -23 37 -39 67 -16 30 -41 74 -56 97 -15 24 -27 46 -27 50 0 3 -6 14 -14
22 -8 9 -27 41 -43 71 -16 30 -40 73 -54 95 -13 22 -31 54 -39 70 -8 17 -20
37 -26 45 -7 8 -26 41 -42 73 -16 31 -34 63 -40 70 -6 6 -23 37 -39 67 -16 30
-41 74 -56 97 -15 24 -27 46 -27 50 0 3 -6 14 -14 22 -8 9 -28 42 -44 74 -16
31 -34 63 -40 70 -6 6 -23 37 -39 67 -16 30 -41 74 -56 97 -15 24 -27 46 -27
50 0 3 -6 14 -14 22 -8 9 -27 41 -43 71 -16 30 -40 73 -54 95 -13 22 -31 54
-39 70 -8 17 -20 37 -26 45 -7 8 -25 40 -41 70 -16 30 -41 74 -56 97 -15 24
-27 46 -27 50 0 3 -6 14 -14 22 -8 9 -28 42 -44 74 -16 31 -34 63 -40 70 -6 6
-23 37 -39 67 -16 30 -41 74 -56 97 -15 24 -27 46 -27 50 0 3 -6 14 -14 22 -8
9 -27 41 -43 71 -16 30 -40 73 -54 95 -13 22 -31 54 -39 70 -8 17 -20 37 -26
45 -7 8 -25 40 -41 70 -16 30 -41 74 -56 97 -15 24 -27 46 -27 50 0 3 -6 14
-14 22 -8 9 -28 42 -44 74 -16 31 -34 63 -40 70 -6 6 -23 37 -39 67 -16 30
-41 74 -56 97 -15 24 -27 46 -27 50 0 3 -6 14 -14 22 -8 9 -27 41 -43 71 -16
30 -40 73 -54 95 -13 22 -31 54 -39 70 -8 17 -20 37 -26 45 -7 8 -25 40 -41
70 -16 30 -41 74 -56 97 -15 24 -27 46 -27 50 0 3 -6 14 -14 22 -8 9 -28 42
-44 74 -16 31 -34 63 -40 70 -6 6 -23 37 -39 67 -16 30 -41 74 -56 97 -15 24
-27 46 -27 50 0 3 -6 14 -14 22 -8 9 -27 41 -43 71 -16 30 -40 73 -54 95 -13
22 -31 54 -39 70 -8 17 -20 37 -26 45 -7 8 -25 40 -41 70 -16 30 -41 74 -56
97 -15 24 -27 46 -27 50 0 3 -6 14 -14 22 -8 9 -27 41 -43 71 -16 30 -40 73
-54 95 -13 22 -31 54 -39 70 -8 17 -26 48 -40 70 -14 22 -32 54 -40 70 -8 17
-27 49 -42 72 -15 23 -28 44 -28 48 0 4 -13 25 -28 48 -15 23 -34 56 -42 72
-8 17 -26 48 -40 70 -14 22 -32 54 -40 70 -8 17 -27 49 -42 72 -15 23 -28 44
-28 48 0 4 -13 25 -28 48 -15 23 -34 56 -42 72 -8 17 -26 48 -40 70 -14 22
-32 54 -40 70 -8 17 -26 48 -40 70 -14 22 -32 54 -40 70 -8 17 -27 49 -42 72
-15 23 -28 44 -28 48 0 4 -13 25 -28 48 -15 23 -34 56 -42 72 -8 17 -26 48
-40 70 -14 22 -32 54 -40 70 -8 17 -27 49 -42 72 -15 23 -28 44 -28 48 0 4
-13 25 -28 48 -15 23 -34 56 -42 72 -8 17 -26 48 -40 70 -14 22 -32 54 -40 70
-8 17 -26 48 -40 70 -14 22 -32 54 -40 70 -8 17 -27 49 -42 72 -15 23 -28 44
-28 48 0 4 -13 25 -28 48 -15 23 -34 56 -42 72 -8 17 -26 48 -40 70 -14 22
-32 54 -40 70 -8 17 -27 49 -42 72 -15 23 -28 44 -28 48 0 4 -13 25 -28 48
-15 23 -34 56 -42 72 -8 17 -26 48 -40 70 -14 22 -32 54 -40 70 -8 17 -27 49
-42 72 -15 23 -28 44 -28 48 0 4 -13 25 -28 48 -15 23 -34 56 -42 72 -8 17
-26 48 -40 70 -14 22 -32 54 -40 70 -8 17 -26 48 -40 70 -14 22 -32 54 -40 70
-8 17 -26 48 -40 70 -14 22 -32 54 -40 70 -8 17 -27 49 -42 72 -15 23 -28 44
-28 48 0 4 -13 25 -28 48 -15 23 -34 56 -42 72 -8 17 -26 48 -40 70 -14 22
-32 54 -40 70 -8 17 -27 49 -42 72 -15 23 -28 44 -28 48 0 4 -13 25 -28 48
-15 23 -34 56 -42 72 -8 17 -26 48 -40 70 -14 22 -32 54 -40 70 -8 17 -26 48
-40 70 -14 22 -32 54 -40 70 -8 17 -27 49 -42 72 -15 23 -28 44 -28 48 0 4
-13 25 -28 48 -15 23 -34 56 -42 72 -8 17 -26 48 -40 70 -14 22 -32 54 -40 70
-8 17 -26 48 -40 70 -14 22 -32 54 -40 70 -8 17 -27 49 -42 72 -15 23 -28 44
-28 48 0 4 -13 25 -28 48 -15 23 -34 56 -42 72 -8 17 -26 48 -40 70 -14 22
-32 54 -40 70 -8 17 -26 48 -40 70 -14 22 -32 54 -40 70 -8 17 -22 41 -31 55
-17 25 -50 83 -76 130 -7 14 -13 37 -13 53 0 36 -27 36 -36 0z"/>
<path d="M6475 1390 c-3 -5 -17 -10 -30 -10 -13 0 -27 -4 -30 -10 -3 -5 -14
-10 -24 -10 -10 0 -54 -18 -97 -40 -113 -58 -247 -193 -304 -304 -58 -115 -70
-170 -70 -317 0 -129 12 -191 57 -287 60 -130 182 -253 324 -325 52 -26 102
-47 111 -47 9 0 20 -4 23 -10 3 -5 15 -10 26 -10 10 0 19 -4 19 -10 0 -6 58
-10 154 -10 146 0 155 1 161 20 3 11 14 20 24 20 10 0 54 18 97 40 116 60 269
214 323 325 41 86 71 208 71 295 0 172 -89 381 -212 496 -88 83 -216 164 -258
164 -11 0 -22 5 -25 10 -3 6 -17 10 -30 10 -13 0 -27 5 -30 10 -4 6 -62 10
-140 10 -78 0 -136 -4 -140 -10z"/>
</g>
</svg>
